PathFileType	4	(X/Y/Z)	path1_04_0-899.trc
DataRate	CameraRate	NumFrames	NumMarkers	Units	OrigDataRate	OrigDataStartFrame	OrigNumFrames
30	30	8	22	m	30	337	899
Frame#	Time	Hip			RHip			RKnee			RAnkle			RBigToe			RSmallToe			RHeel			LHip			LKnee			LAnkle			LBigToe			LSmallToe			LHeel			Neck			Head			Nose			RShoulder			RElbow			RWrist			LShoulder			LElbow			LWrist		
		X1	Y1	Z1	X2	Y2	Z2	X3	Y3	Z3	X4	Y4	Z4	X5	Y5	Z5	X6	Y6	Z6	X7	Y7	Z7	X8	Y8	Z8	X9	Y9	Z9	X10	Y10	Z10	X11	Y11	Z11	X12	Y12	Z12	X13	Y13	Z13	X14	Y14	Z14	X15	Y15	Z15	X16	Y16	Z16	X17	Y17	Z17	X18	Y18	Z18	X19	Y19	Z19	X20	Y20	Z20	X21	Y21	Z21	X22	Y22	Z22
338	11.266666666666667	-1.6768599004321636	0.8186747602172834	0.2794758511822527	-1.6754085418986198	0.7971632024219021	0.36273517657173415	-1.6956209190234746	0.4648021664933528	0.33477611511715694	-1.7193889416601167	0.1147926671065585	0.3527965762760757	-1.5644071800297052	0.0316158714854856	0.36853162350229496	-1.59083380541603	0.032380657247980275	0.43372787242796584	-1.7549130869637561	0.056123183168510456	0.3556552511959219	-1.672825402477835	0.7898981291790966	0.2092965044263863	-1.6876859205509813	0.45165222190575405	0.22459629541512574	-1.7137730655233439	0.09599802869679222	0.19390164175358354	-1.5581330453148103	0.01032116036098731	0.1420685305571217	-1.5772991624747639	0.018566430221410097	0.10967598531609743	-1.777011952281571	0.0317539593183238	0.17943474007852808	-1.6798875039973091	1.449545164929854	0.24114488575783952	-1.6135766130879559	1.7072724953647007	0.27541090615562486	-1.545053516498153	1.5887817213623663	0.285261211313691	-1.725629621744123	1.3536994496520736	0.38898601014109163	-1.7134386269270288	1.0520928197127206	0.42117695093311436	-1.618194996595311	0.8543850713797569	0.4792810705710189	-1.7234651211758065	1.3442862862812441	0.07472715578350246	-1.7110663174124188	1.0377252102557424	0.134018027535385	-1.6007770264225474	0.855934647606784	0.0849681783376633
339	11.3	-1.6775653388833807	0.8188541236682152	0.2792417662015283	-1.6751798949059022	0.7980167568441578	0.363489721740552	-1.6951159727794225	0.46507013468170816	0.33552641447595927	-1.7191234665964337	0.11473943938660286	0.3527352560164292	-1.5638730635760747	0.03205044849479648	0.3690459444704604	-1.5903334054220768	0.03226403241484309	0.4346343980318996	-1.7544116217187125	0.056150921155184566	0.35519743297204087	-1.673167852618773	0.7905616392454257	0.2093963140730909	-1.6884047669628628	0.4519208101260122	0.22481723266128034	-1.711850794597787	0.09667322958927359	0.19596535351644154	-1.5580064087297167	0.010424715375739873	0.1418457971414026	-1.5782854657742234	0.018600200798828338	0.1082751846327778	-1.7768523325200745	0.03156819859969014	0.17967785739625913	-1.6802877685436408	1.4495403672580724	0.24089213306027066	-1.6160933870091037	1.712023183135278	0.2738930714685953	-1.5454095815538151	1.5890406507705757	0.28508323737522806	-1.7264696504323398	1.354125695758831	0.3885218993413823	-1.7141173418506739	1.0520713632141607	0.4210786924715638	-1.6184832394192403	0.8543024144949152	0.4789957262995693	-1.7231101102912763	1.3450747888407666	0.0684870610565006	-1.711118939661142	1.0374066682987813	0.13366849690496807	-1.6017148265759935	0.8558070483469333	0.08504878134779169
340	11.333333333333334	-1.678454292981785	0.8189147386296118	0.27912790381414365	-1.675336683635153	0.7989296026059669	0.36382155670951183	-1.69471863718227	0.46556638009129997	0.3359614945022011	-1.7190387530203297	0.11497656751985742	0.3526151216925274	-1.5634820449363795	0.03272228980087052	0.3696737785768171	-1.5899116257080097	0.03288541294916049	0.4347078078574654	-1.75413558720384	0.05622709019356439	0.35500522975594556	-1.6737150245332246	0.7916780885154118	0.2091558963116137	-1.689677349071167	0.45302467034973104	0.2257374757792245	-1.7121533415424388	0.096809552245263	0.19555331993732872	-1.5578843302686698	0.011134026230371926	0.1413425017949613	-1.5795066412897791	0.01873687785425998	0.10633529626664782	-1.7768861081516012	0.031587484818930915	0.17968022461119237	-1.6808611915835583	1.4493015879049622	0.24056318555271178	-1.6169550664402281	1.7155496311844682	0.2730403715525261	-1.5458861962787818	1.5887597895621544	0.28458435336080673	-1.7272048059279153	1.3544735907220535	0.38795912248385117	-1.7150113166063952	1.052200109196825	0.42077940385468	-1.619052193848672	0.8540744284275046	0.47835821111208676	-1.7227219108115626	1.3460710943845948	0.06176564829374603	-1.7112038584440827	1.0373280279453043	0.1332809994061281	-1.6027049144228414	0.8554512022090156	0.08521174211001331
341	11.366666666666667	-1.6795166384607993	0.8188686444506629	0.2790516147985179	-1.6759538251978716	0.7998499388570348	0.3636574109705181	-1.6944848453236983	0.46625425183975666	0.3359802247138925	-1.7191007281556123	0.11541735628530704	0.35244924350746315	-1.5632827271782044	0.033432134724011436	0.37018169314053345	-1.5896712607330599	0.034019650320507105	0.43405171814098464	-1.7540538589110866	0.05633386434571823	0.3550572251154967	-1.6745928404925496	0.7930696383997893	0.2085393981641881	-1.6913604541330665	0.4547527859152871	0.2269777375846352	-1.7145791678193265	0.09634089348453481	0.19278118649559028	-1.5579068281740933	0.012250448909619335	0.14057278097689385	-1.5809816278311914	0.01881671034524471	0.10404268689207788	-1.7770839218338865	0.03182234753947697	0.17938805854758547	-1.6815396913393807	1.4488907621405964	0.24020643190875848	-1.6163071920244814	1.7175089723118413	0.2731851401768548	-1.5464664078120807	1.5880418615115908	0.28410601342947395	-1.727677230916797	1.3547215779005	0.38748754484393966	-1.715937952343097	1.052429681352967	0.4203588615018146	-1.6200462072578994	0.8536735891851628	0.4770127161393717	-1.7225658956842163	1.347006008119517	0.05647944594242942	-1.7114754926675522	1.037523821398044	0.13285129412817578	-1.6036850200993649	0.8549447187496607	0.0853020060586622
342	11.4	-1.6806885427276668	0.8187314251959551	0.27890692926542204	-1.6769911292706763	0.8007504881208245	0.36301445056774584	-1.694410100390004	0.4671501371328384	0.3356427968554193	-1.7192241291644332	0.11599434677582932	0.3522648939420454	-1.5632929302459424	0.03403962703904299	0.37043867716894435	-1.589600050806145	0.03526834200878199	0.4331170317433396	-1.7540926769212413	0.05643272751873725	0.35525909016276397	-1.6757928343129505	0.7945284459834048	0.20761144298028164	-1.6929709357595373	0.45666745211148285	0.2278619540777449	-1.718477961594813	0.09533844733990589	0.18833012794249737	-1.5580850238099213	0.013530622414282989	0.13964190251038439	-1.582458612933691	0.018798834361989966	0.10181975024922535	-1.7773462278859835	0.03220191082517529	0.17887300078409007	-1.682233710442036	1.4484000939905237	0.23986743513201836	-1.6142024114978302	1.717547167161562	0.2742091945596113	-1.5471083323275203	1.5870848242289533	0.28390070882039625	-1.7278220871562011	1.3549435446973634	0.3872751947790257	-1.7167233579230914	1.0526767140607545	0.41996852491256476	-1.6216064385228643	0.8530829631376193	0.4746018455803758	-1.7227536203966562	1.3477398976817625	0.05302186171935691	-1.7119599418948825	1.0379385699659807	0.13239555241322112	-1.6045797135119448	0.8544739259092663	0.08516424556347742
343	11.433333333333334	-1.6818038233062553	0.8185301351162494	0.2786414198970111	-1.678262729829048	0.8015231048528554	0.36201827148544236	-1.6944396065281944	0.4681842960857701	0.3351066233271706	-1.7193238737817433	0.11662610970143003	0.3520908864379061	-1.5634876312220247	0.034457972446596256	0.370433824949835	-1.5896149307305518	0.03631889492846575	0.43225570537290947	-1.7541850381888324	0.05644989959743142	0.35550854570109675	-1.677143380331947	0.7957930766065143	0.20652081127709326	-1.6941904991404257	0.45836492646823007	0.2281775976687612	-1.7225261776156904	0.09412383154692934	0.18365581411680076	-1.5582582020315996	0.014705704365590077	0.1387247435591765	-1.583477252029509	0.018730391287362584	0.10015737870038852	-1.7775727901411957	0.0325922178331629	0.17830912542350327	-1.6828550659963586	1.4479384088075389	0.23957150992446205	-1.610489894748025	1.7150253938721085	0.2756063451922204	-1.5477197270183973	1.5861230693570518	0.28393415128539223	-1.7277057102863451	1.355219080409642	0.3873118844215991	-1.7172672259796251	1.0528640723026157	0.4197234872928226	-1.623774667909452	0.8523197031096572	0.47101747707456804	-1.7232711609487146	1.3481935913222796	0.05108241939067992	-1.7125227252710145	1.0384503479198695	0.13190751897247424	-1.605300552575954	0.8542502584159751	0.08473881557751937
344	11.466666666666669	-1.68264671740305	0.8183003532219023	0.2782858335128577	-1.6795040603024065	0.8019510704445845	0.360864404876824	-1.6945079462864245	0.46913759864551774	0.33450368144601095	-1.7193525869218333	0.11719556253380992	0.35192789720356893	-1.5638257112427985	0.034594728853816384	0.3702090727242921	-1.5896299667436824	0.03695585556187855	0.431617983002436	-1.7542733643243082	0.056347272296245934	0.35570193537121825	-1.678351326810884	0.7965702102017	0.20545077143234292	-1.6949278104220358	0.45954271301403893	0.22814576579802348	-1.725088546574965	0.09321924084884872	0.1805659173232551	-1.5581995967695401	0.015471861646594694	0.13807410666708145	-1.5835721567510248	0.018651856743115244	0.09951459231874787	-1.7776867776564809	0.03286449229455676	0.17785376400433217	-1.6833347695718277	1.4476234165739177	0.23931955223484686	-1.6048894511449883	1.7091273245824334	0.2767244114775006	-1.5481783836964962	1.5853988684247171	0.28403743727368164	-1.7274988541420204	1.3555394447750997	0.38741004076205493	-1.7175545480500647	1.0529593581542276	0.41964290377288843	-1.6262839598301826	0.8514937786734151	0.46681343961530297	-1.7239997012443298	1.348359420018964	0.050183488808361223	-1.7129494661901452	1.0389463954764333	0.13133814563065668	-1.605785621994124	0.8544155495829515	0.08405887487697748
345	11.5	-1.6830350312982696	0.8180880304012645	0.2779291638223511	-1.6804964727814597	0.8017755022687407	0.3597324678602707	-1.694612469813651	0.4697121202775424	0.3338881557356161	-1.7192873791508818	0.11755601551950785	0.3517453554783947	-1.5642640178458986	0.03435828153077874	0.3698000616974524	-1.5896098940114844	0.037066057822523105	0.4312322899303399	-1.754315702326465	0.05614894064737548	0.3557234953244767	-1.6790987443273648	0.7966126858642351	0.20456409168848122	-1.6952504588033601	0.46001712182753407	0.22806911260462187	-1.7250584468834949	0.09304084399984941	0.18024411954661324	-1.557801193951702	0.015628366125247668	0.13792198952148668	-1.5826763109498199	0.01856516632802204	0.1000050827434458	-1.777630988970436	0.032950324400593756	0.17756339727871054	-1.6836230524954632	1.4475652766098661	0.23912679411753374	-1.597377966720828	1.6994827745137022	0.27706652736082515	-1.5484053092125463	1.5851295317720542	0.2843322640869927	-1.7273854664989334	1.355803512394251	0.3873607026732727	-1.71764055705916	1.0529796447652118	0.41967223980178986	-1.6284586750641004	0.8508312080671702	0.4633208257669732	-1.7247518001538087	1.3483176853531122	0.049981660943092775	-1.7130940925438802	1.0393769429996123	0.13065360265829418	-1.6060396160618151	0.8549778995406861	0.08322579699471432
